# xmcd
#
# Track frame offsets: 
#        150
#        16300
#        40540
#        52169
#        69210
#        87649
#        107001
#        118223
#        131236
#        148055
#        159855
#        173121
#
# Disc length: 2464 seconds
#
# Revision: 0
# Processed by: cddbd v1.5.2PL0 Copyright (c) Steve Scherf et al.
# Submitted via: ExactAudioCopy v0.99pb4
#
DISCID=a4099e0c
DTITLE=Stowe, Ferrel - Personal Tribute to Josh
DYEAR=2011
DGENRE=Bluegrass
TTITLE0=Randy Lynn Rag
TTITLE1=Flatt Lonesome
TTITLE2=Cannon Ball BLues
TTITLE3=Cuttin' the Grass
TTITLE4=Fireball Mail
TTITLE5=Home Sweet Home
TTITLE6=Fireball
TTITLE7=What a Friend We Have in Jesus
TTITLE8=Shuckin' the Corn
TTITLE9=Foggy Mtn Rock
TTITLE10=Evelina
TTITLE11=Maggie Blues/Maidens Prayer
EXTD=
EXTT0=
EXTT1=
EXTT2=
EXTT3=
EXTT4=
EXTT5=
EXTT6=
EXTT7=
EXTT8=
EXTT9=
EXTT10=
EXTT11=
PLAYORDER=
